<svg width="256" height="256" viewBox="0 0 256 256" fill="none" xmlns="http://www.w3.org/2000/svg">
<path d="M65.6 176C88 176 96 160 96 160L83.2 152C83.2 152 78.4 160 67.2 160C56 160 48 145.6 48 124.8C48 105.6 57.6 96 67.2 96C75.2 96 81.6 102.4 81.6 102.4L94.4 92.8C94.4 92.8 83.2 80 67.2 80C49.6 80 32 94.4 32 124.8C32 155.2 46.4 176 65.6 176ZM139.2 158.4C134.4 160 128 158.4 123.2 152L110.4 160C116.8 169.6 126.4 176 136 176C137.6 176 140.8 176 142.4 174.4C153.6 171.2 160 161.6 160 148.8C160 129.6 147.2 123.2 139.2 120C131.2 115.2 128 113.6 128 107.2C128 100.8 129.6 96 137.6 96C142.4 96 147.2 102.4 147.2 102.4L160 92.8C156.8 88 148.8 80 137.6 80C123.2 80 112 89.6 112 105.6C112 123.2 123.2 129.6 131.2 134.4C140.8 137.6 144 140.8 144 148.8C144 153.6 144 158.4 139.2 158.4ZM203.2 158.4C198.4 160 192 158.4 187.2 152L174.4 160C180.8 169.6 190.4 176 200 176C201.6 176 204.8 176 206.4 174.4C217.6 171.2 224 161.6 224 148.8C224 129.6 211.2 123.2 203.2 120C195.2 115.2 192 113.6 192 107.2C192 100.8 193.6 96 201.6 96C206.4 96 211.2 102.4 211.2 102.4L224 92.8C220.8 88 212.8 80 201.6 80C187.2 80 176 89.6 176 105.6C176 123.2 187.2 129.6 195.2 134.4C204.8 137.6 208 140.8 208 148.8C208 153.6 208 158.4 203.2 158.4V158.4ZM0 0V256H256V0H0ZM240 240H16V16H240V240Z" fill="#000000"/>
</svg>
