<svg width="256" height="256" viewBox="0 0 256 256" fill="none" xmlns="http://www.w3.org/2000/svg">
<path d="M0 0H256V256H0V0ZM235.029 194.944C233.163 183.264 225.557 173.451 202.997 164.299C195.147 160.619 186.421 158.059 183.829 152.139C182.859 148.619 182.709 146.699 183.339 144.619C184.939 137.728 193.099 135.659 199.499 137.579C203.659 138.859 207.499 142.059 209.909 147.179C220.939 139.968 220.939 139.968 228.629 135.179C225.749 130.699 224.32 128.768 222.379 126.859C215.659 119.339 206.709 115.499 192.149 115.829L184.629 116.779C177.419 118.539 170.549 122.379 166.389 127.499C154.229 141.269 157.739 165.269 172.459 175.189C187.019 186.069 208.309 188.459 211.029 198.709C213.589 211.189 201.749 215.189 190.059 213.749C181.408 211.829 176.619 207.499 171.339 199.499L151.819 210.709C154.059 215.829 156.619 218.059 160.459 222.539C179.019 241.269 225.419 240.309 233.749 211.829C234.059 210.869 236.309 204.309 234.539 194.229L235.029 194.944V194.944ZM139.211 117.664H115.232C115.232 138.336 115.136 158.88 115.136 179.584C115.136 192.725 115.808 204.789 113.664 208.501C110.144 215.851 101.077 214.912 96.96 213.621C92.736 211.531 90.592 208.651 88.1067 204.501C87.4347 203.381 86.9333 202.411 86.752 202.411L67.2853 214.411C70.5387 221.131 75.2853 226.912 81.408 230.592C90.528 236.032 102.784 237.792 115.616 234.912C123.968 232.501 131.168 227.541 134.933 219.861C140.373 209.941 139.221 197.781 139.168 184.171C139.296 162.261 139.168 140.341 139.168 118.261L139.211 117.664V117.664Z" fill="#000000"/>
</svg>
