<svg width="256" height="256" viewBox="0 0 256 256" fill="none" xmlns="http://www.w3.org/2000/svg">
<path d="M128 105.059C115.416 105.059 105.168 115.307 105.168 127.891C105.168 140.475 115.416 150.723 128 150.723C140.584 150.723 150.832 140.475 150.832 127.891C150.832 115.307 140.584 105.059 128 105.059ZM64.08 173.267L59.04 172.019C21.536 162.515 0 146.435 0 127.851C0 109.267 21.544 93.1869 59.04 83.6829L64.08 82.4349L65.496 87.4349C69.3006 100.531 74.1646 113.296 80.04 125.603L81.12 127.851L80.04 130.139C74.1523 142.441 69.2879 155.207 65.496 168.307L64.08 173.267ZM56.712 95.3469C28.208 103.347 10.712 115.635 10.712 127.851C10.712 140.067 28.216 152.307 56.712 160.355C60.2052 149.256 64.4223 138.398 69.336 127.851C64.4154 117.307 60.1982 106.448 56.712 95.3469V95.3469ZM191.92 173.267L190.504 168.267C186.706 155.181 181.842 142.429 175.96 130.139L174.88 127.851L175.96 125.563C181.848 113.261 186.712 100.495 190.504 87.3949L191.92 82.4349L196.96 83.6829C234.464 93.1869 256 109.267 256 127.851C256 146.435 234.456 162.515 196.96 172.019L191.92 173.267ZM186.664 127.851C191.594 138.391 195.812 149.25 199.288 160.355C227.832 152.315 245.288 140.067 245.288 127.851C245.288 115.635 227.784 103.395 199.288 95.3469C195.787 106.443 191.57 117.3 186.664 127.851ZM56.624 95.3069L55.208 90.3069C44.664 53.1389 47.872 26.4749 64 17.1789C79.832 8.0509 105.208 18.8429 131.832 46.1789L135.456 49.8909L131.832 53.6029C122.377 63.4399 113.738 74.0294 106 85.2669L104.544 87.3069L102.04 87.5149C88.4278 88.5893 74.925 90.7644 61.664 94.0189L56.624 95.3069ZM76.872 24.6029C74 24.6029 71.456 25.1869 69.328 26.4349C58.744 32.5629 56.872 53.8109 64.16 82.4749C75.5316 79.9312 87.0576 78.1353 98.664 77.0989C105.346 67.582 112.653 58.5194 120.536 49.9709C103.912 33.7629 88.16 24.5949 76.872 24.5949V24.6029ZM179.168 241.763C179.128 241.763 179.128 241.763 179.168 241.763C163.96 241.763 144.416 230.347 124.168 209.515L120.544 205.803L124.168 202.091C133.623 192.254 142.262 181.664 150 170.427L151.416 168.387L153.92 168.139C167.55 167.101 181.069 164.925 194.336 161.635L199.376 160.387L200.792 165.387C211.336 202.555 208.128 229.179 192 238.467C188.101 240.708 183.665 241.845 179.168 241.755V241.763ZM135.456 205.723C152.08 221.931 167.832 231.099 179.12 231.099H179.16C181.992 231.099 184.536 230.475 186.664 229.267C197.248 223.139 199.168 201.891 191.832 173.227C180.463 175.773 168.935 177.556 157.328 178.563C150.646 188.093 143.34 197.169 135.456 205.731V205.723ZM199.376 95.3069L194.336 94.0189C181.059 90.7753 167.544 88.6003 153.92 87.5149L151.416 87.3069L150 85.2669C142.262 74.0294 133.623 63.4399 124.168 53.6029L120.544 49.8909L124.168 46.1789C150.792 18.8429 176.168 8.0509 192 17.1789C208.128 26.4669 211.336 53.1389 200.792 90.3069L199.376 95.3069ZM157.336 77.0989C168.943 78.1325 180.469 79.9284 191.84 82.4749C199.176 53.8109 197.256 32.5549 186.672 26.4349C176.128 20.3549 156.296 29.6829 135.464 49.9789C143.326 58.5457 150.631 67.6069 157.336 77.1069V77.0989ZM76.872 241.763C72.368 241.843 67.912 240.723 64 238.475C47.872 229.187 44.664 202.555 55.208 165.395L56.624 160.395L61.664 161.643C74 164.771 87.584 166.931 102.04 168.147L104.544 168.395L105.96 170.435C113.698 181.672 122.337 192.262 131.792 202.099L135.416 205.811L131.792 209.523C111.584 230.355 92.04 241.771 76.872 241.771V241.763ZM64.168 173.227C56.832 201.891 58.752 223.147 69.336 229.267C79.88 235.267 99.672 226.019 120.544 205.723C112.66 197.161 105.354 188.085 98.672 178.555C87.0641 177.551 75.5369 175.768 64.168 173.219V173.227ZM128 179.931C119.208 179.931 110.208 179.555 101.168 178.803L98.664 178.595L97.208 176.515C92.1017 169.178 87.3055 161.63 82.832 153.891C78.3492 146.151 74.1935 138.227 70.376 130.139L69.296 127.851L70.376 125.563C78.0242 109.39 86.9989 93.8782 97.208 79.1869L98.664 77.1069L101.168 76.8989C119.024 75.3949 136.976 75.3949 154.832 76.8989L157.336 77.1069L158.792 79.1869C169.014 93.8699 177.99 109.383 185.624 125.563L186.704 127.851L185.624 130.139C178.005 146.327 169.029 161.841 158.792 176.515L157.336 178.595L154.832 178.803C145.907 179.55 136.956 179.926 128 179.931V179.931ZM104.584 168.347C120.336 169.555 135.664 169.555 151.456 168.347C160.263 155.45 168.091 141.911 174.872 127.843C168.119 113.752 160.277 100.209 151.416 87.3389C135.829 86.1309 120.171 86.1309 104.584 87.3389C95.7169 100.205 87.8742 113.748 81.128 127.843C87.9114 141.918 95.7525 155.458 104.584 168.347V168.347Z" fill="#000000"/>
</svg>
